HIERARCHY
ROOT Hips
{
	OFFSET 4.076200 -17.275196 43.303001
	CHANNELS 6 Xposition Yposition Zposition Zrotation Xrotation Yrotation
	JOINT Chest
	{
		OFFSET -0.689800 0.941999 5.341000
		CHANNELS 6 Xposition Yposition Zposition Zrotation Xrotation Yrotation
		JOINT Chest2
		{
			OFFSET 0.000000 0.000000 4.278900
			CHANNELS 6 Xposition Yposition Zposition Zrotation Xrotation Yrotation
			JOINT Neck
			{
				OFFSET 0.000000 0.000000 9.970299
				CHANNELS 6 Xposition Yposition Zposition Zrotation Xrotation Yrotation
				JOINT Head
				{
					OFFSET 0.000000 0.000002 2.173901
					CHANNELS 6 Xposition Yposition Zposition Zrotation Xrotation Yrotation
					End Site
					{
						OFFSET 0.000000 0.000000 6.488197
					}
				}
			}
			JOINT LeftCollar
			{
				OFFSET 2.472300 -0.285801 5.433899
				CHANNELS 6 Xposition Yposition Zposition Zrotation Xrotation Yrotation
				JOINT LeftShoulder
				{
					OFFSET 5.327700 0.000000 0.000000
					CHANNELS 6 Xposition Yposition Zposition Zrotation Xrotation Yrotation
					JOINT LeftElbow
					{
						OFFSET 0.000000 0.000000 -10.713001
						CHANNELS 6 Xposition Yposition Zposition Zrotation Xrotation Yrotation
						JOINT LeftWrist
						{
							OFFSET 0.000000 -0.000002 -13.396900
							CHANNELS 6 Xposition Yposition Zposition Zrotation Xrotation Yrotation
							End Site
							{
								OFFSET 0.000000 0.000000 -2.173901
							}
						}
					}
				}
			}
			JOINT RightCollar
			{
				OFFSET -2.589400 -1.358400 6.105000
				CHANNELS 6 Xposition Yposition Zposition Zrotation Xrotation Yrotation
				JOINT RightShoulder
				{
					OFFSET -4.580200 0.000000 0.000000
					CHANNELS 6 Xposition Yposition Zposition Zrotation Xrotation Yrotation
					JOINT RightElbow
					{
						OFFSET 0.000000 0.000000 -10.761101
						CHANNELS 6 Xposition Yposition Zposition Zrotation Xrotation Yrotation
						JOINT RightWrist
						{
							OFFSET 0.000000 -0.000002 -13.028500
							CHANNELS 6 Xposition Yposition Zposition Zrotation Xrotation Yrotation
							End Site
							{
								OFFSET 0.000000 0.000000 -2.173901
							}
						}
					}
				}
			}
		}
	}
	JOINT LeftHip
	{
		OFFSET 2.532500 0.486900 -2.489700
		CHANNELS 6 Xposition Yposition Zposition Zrotation Xrotation Yrotation
		JOINT LeftKnee
		{
			OFFSET 0.000000 -0.000002 -18.199398
			CHANNELS 6 Xposition Yposition Zposition Zrotation Xrotation Yrotation
			JOINT LeftAnkle
			{
				OFFSET 0.000000 -0.000002 -16.083900
				CHANNELS 6 Xposition Yposition Zposition Zrotation Xrotation Yrotation
				End Site
				{
					OFFSET 0.000000 -8.641399 0.000000
				}
			}
		}
	}
	JOINT RightHip
	{
		OFFSET -2.112700 -0.049900 -2.711102
		CHANNELS 6 Xposition Yposition Zposition Zrotation Xrotation Yrotation
		JOINT RightKnee
		{
			OFFSET 0.000000 -0.000002 -19.127298
			CHANNELS 6 Xposition Yposition Zposition Zrotation Xrotation Yrotation
			JOINT RightAnkle
			{
				OFFSET 0.000000 -0.000002 -14.874901
				CHANNELS 6 Xposition Yposition Zposition Zrotation Xrotation Yrotation
				End Site
				{
					OFFSET 0.000000 -8.198299 0.000000
				}
			}
		}
	}
}
MOTION
Frames: 7
Frame Time: 0.041667
33.543102 -64.991104 43.471699 -100.858023 -1.885997 -1.484155 -0.689788 0.942006 5.341000 8.459709 -0.891357 1.239421 0.000002 0.000003 4.278908 -3.344061 0.294204 0.020496 -0.000002 -0.000002 9.970290 1.551633 9.685281 1.946577 -0.000003 0.000002 2.173884 1.074584 -0.873914 -0.966972 2.472295 -0.285804 5.433892 -7.197817 2.784150 -6.069374 5.327705 -0.000004 -0.000004 -28.873522 -42.652796 -46.307894 -0.000014 -0.000007 -10.712995 30.703585 -41.137953 73.200319 0.000001 -0.000002 -13.396898 -71.875508 0.087999 -94.002220 -2.589406 -1.358404 6.104999 19.789153 4.951891 6.625313 -4.580199 0.000000 0.000003 36.349232 -33.072835 51.045695 -0.000005 -0.000003 -10.761104 -57.654399 -49.770192 -84.601619 0.000001 0.000004 -13.028491 -106.370914 2.346224 -147.088411 2.532512 0.486902 -2.489700 20.109673 -21.177630 8.077301 -0.000002 -0.000004 -18.199406 10.804694 37.714385 -0.796631 0.000000 -0.000002 -16.083899 -2.553807 44.887307 -15.891584 -2.112690 -0.049893 -2.711097 -3.965351 -6.256539 6.833346 -0.000005 0.000001 -19.127300 346.944295 59.036754 -360.565386 -0.000009 -0.000001 -14.874901 18.924106 59.111729 -2.042673
33.214100 -64.971191 43.251503 -100.195317 -1.868877 -1.661751 -0.689795 0.942008 5.340997 8.009420 -0.972814 1.513618 0.000010 -0.000001 4.278901 -3.430445 0.290248 -0.002137 -0.000004 -0.000002 9.970301 1.525596 9.597358 1.924898 -0.000001 0.000000 2.173897 1.041049 -0.830408 -1.014877 2.472296 -0.285803 5.433896 -7.165157 2.879130 -6.044488 5.327707 -0.000003 -0.000006 -29.088143 -42.660245 -46.505006 0.000003 -0.000005 -10.713003 30.839527 -40.929407 73.262562 -0.000002 -0.000005 -13.396892 -72.159207 0.108648 -93.925326 -2.589402 -1.358402 6.105005 19.902386 4.980513 6.562806 -4.580206 0.000004 -0.000001 36.262543 -33.031457 51.139870 0.000002 0.000002 -10.761099 -57.737331 -49.766162 -84.752498 0.000008 -0.000003 -13.028499 -106.290618 2.396834 -147.543069 2.532505 0.486904 -2.489702 20.320723 -21.248264 8.541963 -0.000004 0.000002 -18.199402 7.924100 39.461073 0.104786 0.000000 -0.000002 -16.083900 -0.530956 42.464895 -16.514120 -2.112692 -0.049894 -2.711104 -4.561459 -6.780352 7.019542 -0.000001 0.000004 -19.127306 347.295257 60.684974 -360.188332 -0.000009 -0.000006 -14.874897 18.958209 59.196382 -2.120789
32.909698 -64.946396 43.042805 -99.747632 -1.675393 -1.788825 -0.689807 0.941998 5.340994 7.742422 -1.158757 1.752711 -0.000004 -0.000001 4.278899 -3.459146 0.241131 -0.029705 0.000005 -0.000003 9.970304 1.527292 9.450332 1.880850 -0.000001 -0.000002 2.173897 1.008350 -0.652603 -1.022710 2.472301 -0.285808 5.433898 -7.107152 2.945051 -6.002751 5.327706 0.000000 -0.000006 -29.441466 -42.601078 -46.803298 -0.000009 0.000000 -10.712999 31.030553 -40.861788 73.367980 0.000005 -0.000010 -13.396895 -72.275477 0.204885 -93.991674 -2.589397 -1.358401 6.105006 19.904186 4.948056 6.537284 -4.580204 -0.000000 0.000006 36.179324 -33.105889 51.150430 -0.000002 -0.000002 -10.761110 -57.688802 -49.497694 -84.897428 -0.000003 -0.000003 -13.028492 -105.981942 2.437680 -147.960790 2.532491 0.486893 -2.489707 21.240736 -21.607314 9.138124 0.000003 0.000004 -18.199402 5.352156 41.300532 0.810057 -0.000000 -0.000005 -16.083899 0.865112 40.313255 -17.067145 -2.112704 -0.049903 -2.711111 -5.833725 -7.761112 6.938506 0.000005 0.000006 -19.127302 348.258532 62.546788 -359.517990 0.000004 0.000003 -14.874900 18.969396 59.156610 -2.057478
32.618595 -64.908295 42.833599 -99.076682 -1.636728 -1.901156 -0.689804 0.942006 5.340999 7.311170 -1.164277 1.978391 0.000001 -0.000004 4.278895 -3.491534 0.229301 -0.060347 -0.000001 -0.000003 9.970302 1.451864 9.253907 1.878032 0.000004 0.000004 2.173892 0.707077 -0.522783 -0.673173 2.472304 -0.285810 5.433903 -7.212775 2.940919 -6.018755 5.327703 -0.000004 0.000006 -29.615994 -42.575550 -47.028226 0.000007 -0.000008 -10.713003 31.108640 -40.885366 73.447497 0.000000 -0.000009 -13.396899 -72.212701 0.284220 -94.113784 -2.589396 -1.358403 6.105001 19.878965 4.967662 6.506783 -4.580204 0.000003 -0.000004 36.382922 -32.809794 51.380511 0.000006 0.000010 -10.761091 -58.228230 -49.288025 -85.177247 0.000006 0.000004 -13.028499 -105.740652 2.404212 -148.064363 2.532498 0.486907 -2.489706 21.433958 -21.834677 9.482188 0.000001 0.000002 -18.199402 2.777192 43.041803 1.814961 0.000002 -0.000003 -16.083900 2.264952 38.126078 -16.848687 -2.112696 -0.049893 -2.711109 -6.336169 -8.209420 6.980933 -0.000001 0.000008 -19.127300 349.629925 64.153781 -360.090360 -0.000009 -0.000001 -14.874899 18.429329 58.930367 -2.124252
32.350201 -64.879501 42.632103 -98.280787 -1.443120 -1.924980 -0.689808 0.941995 5.341003 6.746232 -1.278880 2.144769 0.000004 0.000004 4.278903 -3.521160 0.193691 -0.096486 0.000002 -0.000001 9.970304 1.356801 9.009332 1.888134 -0.000001 0.000006 2.173890 0.621757 -0.350739 -0.598918 2.472300 -0.285800 5.433910 -7.300333 2.901952 -6.007419 5.327697 0.000009 0.000004 -29.816453 -42.491204 -47.311986 -0.000008 -0.000002 -10.712998 31.287345 -40.925414 73.587010 0.000004 -0.000001 -13.396895 -72.054985 0.259752 -94.214147 -2.589393 -1.358395 6.105006 19.836941 4.973725 6.489078 -4.580207 -0.000005 -0.000002 36.431030 -32.825206 51.481868 0.000001 -0.000005 -10.761105 -58.361248 -49.228599 -85.324765 -0.000002 -0.000004 -13.028496 -105.580750 2.404240 -148.389384 2.532485 0.486893 -2.489698 21.417942 -22.299960 9.813933 -0.000006 -0.000001 -18.199402 0.100624 44.712215 3.095175 -0.000005 -0.000001 -16.083904 3.590659 36.168560 -16.666433 -2.112711 -0.049907 -2.711100 -7.195991 -8.900111 6.894169 -0.000004 -0.000003 -19.127293 349.864583 65.643370 -359.637382 -0.000005 0.000001 -14.874898 18.189711 58.950782 -1.925239
32.100700 -64.845291 42.427605 -97.742876 -1.257975 -2.049146 -0.689798 0.942000 5.340997 6.417879 -1.349519 2.415682 0.000009 -0.000004 4.278897 -3.573280 0.132078 -0.139940 -0.000001 -0.000004 9.970304 1.295776 8.794445 1.880032 -0.000007 0.000007 2.173900 0.586542 -0.336521 -0.574975 2.472303 -0.285804 5.433900 -7.381035 2.875035 -5.917710 5.327695 -0.000000 -0.000001 -30.095121 -42.304245 -47.719144 0.000009 0.000006 -10.712994 31.551543 -40.762156 73.714277 0.000002 -0.000004 -13.396902 -72.176146 0.290152 -94.191614 -2.589404 -1.358399 6.105003 19.926703 5.086610 6.306951 -4.580209 0.000009 0.000003 36.391210 -32.850690 51.737331 0.000006 0.000008 -10.761104 -58.453380 -49.397731 -85.521393 0.000004 0.000008 -13.028500 -105.752604 2.407545 -148.358348 2.532504 0.486897 -2.489700 21.340798 -22.784738 10.136469 0.000002 0.000002 -18.199404 -2.377690 46.242860 4.510198 0.000002 -0.000005 -16.083900 5.140670 34.398639 -16.526387 -2.112700 -0.049902 -2.711104 -7.828799 -9.574528 6.868714 -0.000007 0.000000 -19.127302 350.567901 67.058394 -359.548453 -0.000011 -0.000002 -14.874899 17.920103 58.975692 -2.054538
31.869503 -64.814293 42.230095 -97.470119 -1.086823 -2.128751 -0.689803 0.942003 5.341003 6.355555 -1.312143 2.531188 0.000006 0.000004 4.278900 -3.589749 0.097434 -0.152399 -0.000001 -0.000001 9.970300 1.262282 8.497258 1.979316 0.000000 0.000000 2.173890 0.523890 -0.204623 -0.569149 2.472302 -0.285800 5.433904 -7.452745 2.714957 -5.896916 5.327706 0.000003 0.000001 -30.249303 -42.164947 -47.835452 0.000000 -0.000002 -10.713000 31.633290 -41.236632 73.672736 -0.000001 -0.000012 -13.396900 -71.582111 0.300803 -94.339871 -2.589403 -1.358397 6.105005 19.841947 5.086691 6.407499 -4.580204 -0.000000 0.000007 36.522019 -33.017414 51.846054 0.000005 0.000008 -10.761100 -58.454268 -49.055494 -85.519398 0.000001 0.000004 -13.028500 -105.444966 2.351443 -148.267479 2.532501 0.486901 -2.489702 21.740941 -23.262158 10.532804 -0.000003 0.000005 -18.199400 -4.837211 47.779926 5.820296 -0.000002 -0.000002 -16.083902 6.539492 32.640405 -16.162898 -2.112701 -0.049901 -2.711104 -8.280614 -10.346110 6.670244 -0.000003 0.000004 -19.127296 352.397873 68.707489 -360.193386 -0.000002 -0.000000 -14.874902 17.086569 58.699759 -2.246800
